<svg version="1.1" id="Layer_1" xmlns="http://www.w3.org/2000/svg" xmlns:xlink="http://www.w3.org/1999/xlink" x="0px" y="0px"
	 width="100%" viewBox="0 0 628 175" enable-background="new 0 0 628 175" xml:space="preserve">
<path fill="#FDFEFE" opacity="1.000000" stroke="none" 
	d="
M413.000000,176.000000 
	C275.376038,176.000000 138.252060,176.000000 1.064041,176.000000 
	C1.064041,117.727577 1.064041,59.455067 1.064041,1.091276 
	C210.333313,1.091276 419.666656,1.091276 628.966309,1.091276 
	C628.966309,59.414558 628.966309,117.707291 628.966309,176.000000 
	C557.121765,176.000000 485.310883,176.000000 413.000000,176.000000 
M306.937866,89.490303 
	C306.947540,89.663292 306.957184,89.836281 306.631470,90.500038 
	C306.558838,90.884720 306.486206,91.269402 306.077362,92.391983 
	C306.361115,95.257118 306.644836,98.122261 306.896484,101.703835 
	C307.242126,102.502914 307.587738,103.301994 307.946442,104.020035 
	C307.946442,104.020035 307.868439,104.045639 308.030640,104.583466 
	C308.312073,104.805191 308.593506,105.026917 308.885468,105.077019 
	C308.885468,105.077019 308.716248,105.107559 308.802917,105.723816 
	C309.180939,106.182877 309.558990,106.641945 309.972778,107.027466 
	C309.972778,107.027466 309.891876,107.039284 310.039734,107.575027 
	C310.333679,107.780350 310.627625,107.985672 310.934113,108.059227 
	C310.934113,108.059227 310.802582,108.073936 311.022766,108.727623 
	C315.076141,110.866928 319.020752,113.256752 323.212830,115.076569 
	C327.590546,116.976974 332.206512,118.328606 336.831055,120.494698 
	C336.933167,120.660362 337.035248,120.826019 337.050690,121.732803 
	C337.098175,122.475418 337.145630,123.218025 336.778809,124.562950 
	C331.444946,129.855194 325.507660,128.166214 319.648315,125.878860 
	C311.834595,122.828537 311.866425,122.737411 306.723541,129.400909 
	C306.219421,130.054092 305.778076,130.755722 305.098694,131.736420 
	C313.707703,140.244949 323.899780,143.257874 335.519257,140.427582 
	C343.553528,138.470581 349.094116,133.609818 350.194366,124.216171 
	C351.000397,117.979256 350.028381,112.415604 344.183319,108.736748 
	C344.183319,108.736748 344.307922,108.810349 344.111877,108.256577 
	C343.758148,108.102707 343.404419,107.948837 342.692963,107.209663 
	C336.318909,104.751373 329.944885,102.293083 323.183594,99.265503 
	C322.769623,99.086456 322.355682,98.907402 321.753448,98.301384 
	C321.753448,98.301384 321.323212,98.120758 321.143890,97.543098 
	C320.401825,96.032791 319.659790,94.522484 319.173798,92.408920 
	C320.156372,91.012543 321.138947,89.616165 322.933380,88.162270 
	C327.584869,88.457916 332.452026,87.990173 336.837158,89.228813 
	C343.352783,91.069244 343.207672,91.583015 346.446228,84.819679 
	C346.793091,84.528290 347.139954,84.236900 347.948761,83.421768 
	C348.047333,82.972610 348.145905,82.523445 348.541046,81.713730 
	C348.067230,81.408531 347.593384,81.103340 347.053986,80.886154 
	C347.053986,80.886154 347.161987,80.866615 346.961670,80.395676 
	C346.645905,80.295563 346.330139,80.195450 345.765015,79.864975 
	C345.765015,79.864975 345.426086,79.845985 345.085999,79.370247 
	C344.722107,79.258537 344.358246,79.146820 343.993225,78.992912 
	C343.993225,78.992912 343.959747,79.018692 343.534454,78.453346 
	C340.740692,77.437912 338.021027,75.938522 335.139343,75.497177 
	C326.260742,74.137390 317.547485,73.996025 311.069672,82.090454 
	C311.069672,82.090454 311.097351,82.219620 310.558289,82.430374 
	C310.248352,82.914436 309.938416,83.398506 309.123901,84.246780 
	C308.726776,85.163475 308.329651,86.080162 307.740753,87.204231 
	C307.740753,87.204231 307.819244,87.475731 307.348480,87.855873 
	C307.282898,88.242783 307.217346,88.629684 306.937866,89.490303 
M354.454712,81.160278 
	C354.115204,81.465553 353.775665,81.770828 353.146973,82.836502 
	C353.226715,83.905418 353.306458,84.974335 353.154785,86.882965 
	C352.289520,91.692390 353.464172,94.691261 359.182190,93.767410 
	C359.810669,93.665871 360.493073,93.897987 361.112671,94.879738 
	C361.249329,97.274437 361.385986,99.669144 361.262024,102.938850 
	C361.348297,106.304543 361.434570,109.670227 361.237152,113.884247 
	C361.234161,116.567535 361.231171,119.250832 360.966827,122.669609 
	C361.290131,124.122803 361.613434,125.575996 362.043884,127.754074 
	C365.974670,138.841537 376.680573,143.279266 386.558075,137.716415 
	C387.726440,137.058411 389.029175,134.896866 388.771545,133.776901 
	C388.010193,130.467194 386.497467,127.330360 385.778839,125.440926 
	C381.719421,124.427032 378.869263,123.715164 375.963715,122.435738 
	C375.845947,122.286530 375.728210,122.137314 375.560608,121.173225 
	C375.323761,116.791351 375.086884,112.409485 375.057861,107.115440 
	C375.090912,102.755135 375.123962,98.394821 376.063019,93.942001 
	C379.734741,93.743439 383.406494,93.544876 387.346893,93.529549 
	C387.346893,93.529549 387.601654,93.329384 387.601654,93.329384 
	C387.601654,93.329384 387.511932,93.017647 387.913391,92.180069 
	C387.812073,88.807121 387.710754,85.434181 387.278381,81.334526 
	C383.267639,81.123512 379.256927,80.912498 375.128998,80.695320 
	C374.904205,77.248810 374.704071,74.180099 374.262390,70.346504 
	C370.693573,70.206573 367.113190,69.867012 363.564453,70.073036 
	C362.722015,70.121941 361.985748,71.999046 361.044861,73.903267 
	C361.023071,76.255211 361.001312,78.607162 360.195068,81.075745 
	C359.148743,81.198906 358.102448,81.322060 356.381348,81.220413 
	C355.910828,81.253128 355.440277,81.285843 354.454712,81.160278 
M245.984833,108.933456 
	C246.618561,114.826447 247.252289,120.719429 247.772156,126.811600 
	C247.772156,126.811600 247.902054,127.000710 247.921326,127.730324 
	C250.014374,133.786163 254.141510,137.877045 260.210175,139.755692 
	C269.740479,142.705917 277.118073,138.289856 283.780792,131.947037 
	C286.416748,138.015015 286.416504,138.029190 293.577728,138.150589 
	C295.059723,138.175690 296.544189,138.052261 298.546112,137.943008 
	C298.605957,137.636627 298.665833,137.330246 298.843689,136.093933 
	C298.718414,131.069061 298.593170,126.044189 298.719177,120.135048 
	C298.601532,117.099731 298.483856,114.064423 298.650513,110.172989 
	C298.542542,107.783066 298.434601,105.393150 298.624847,102.145126 
	C298.545685,99.108994 298.466522,96.072868 298.698883,92.147316 
	C298.698883,86.584831 298.698883,81.022346 298.698883,75.019485 
	C294.643524,75.019485 291.187195,74.820107 287.781616,75.148140 
	C286.832581,75.239555 285.296204,76.880188 285.282928,77.827667 
	C285.178986,85.245499 285.380402,92.667618 285.325836,100.993828 
	C285.138184,105.478920 284.950531,109.964005 284.320587,115.031433 
	C282.017487,125.281906 268.876617,130.250153 260.936676,122.168175 
	C260.295166,120.779266 259.653656,119.390350 259.104797,117.201988 
	C258.936127,116.146027 258.767426,115.090073 258.818573,113.529915 
	C258.683228,113.201103 258.547882,112.872292 258.543030,111.733665 
	C258.493591,109.303650 258.444153,106.873627 258.788605,103.655899 
	C258.797607,95.229958 258.900055,86.801872 258.707764,78.380531 
	C258.681030,77.210136 257.307129,75.191345 256.374329,75.078857 
	C253.024307,74.674889 249.595978,74.920357 246.058792,74.920357 
	C246.058792,79.135895 246.058792,82.581581 245.925522,86.944946 
	C245.990631,91.302498 246.055740,95.660042 245.973297,100.896599 
	C246.034485,103.270195 246.095673,105.643784 245.984833,108.933456 
M237.157700,119.108635 
	C237.065689,115.726852 236.973679,112.345062 237.010147,108.059372 
	C236.897842,104.711739 236.785538,101.364105 236.931900,97.113586 
	C236.856583,92.094963 236.781265,87.076332 236.979828,81.185646 
	C237.148407,74.320770 233.864944,72.897575 224.370575,75.771530 
	C224.370575,78.190231 224.370575,80.630745 224.215378,83.855453 
	C224.251190,84.917366 224.287003,85.979279 224.097000,87.947258 
	C224.104721,98.314003 224.112442,108.680756 223.940552,119.760521 
	C220.860855,128.983170 216.195755,129.884384 203.814331,123.472313 
	C201.116150,126.703262 198.380920,129.978546 195.468536,133.465988 
	C200.289444,138.489517 206.222885,140.606476 212.448685,141.716049 
	C225.766083,144.089447 236.315964,135.361481 236.940384,121.362617 
	C236.924469,120.905647 236.908554,120.448677 237.157700,119.108635 
M545.744324,133.514069 
	C548.617859,126.117508 551.506409,118.726738 554.361511,111.323036 
	C559.074341,99.101807 563.765686,86.872238 568.736328,73.943016 
	C565.420288,73.943016 562.905334,73.621078 560.533264,74.064156 
	C559.118164,74.328468 557.223755,75.520401 556.742981,76.760010 
	C551.035583,91.476875 545.554016,106.281319 539.358032,121.085045 
	C538.945557,120.941147 538.533020,120.797241 538.112488,119.941963 
	C536.427673,115.628952 534.742798,111.315941 533.066528,106.239479 
	C529.004272,95.514839 524.942017,84.790192 520.914124,74.156219 
	C517.333435,74.156219 513.930664,74.156219 509.798553,74.156219 
	C514.390991,85.792717 518.773743,96.897766 523.139099,108.687233 
	C523.808594,110.123459 524.478027,111.559677 525.131775,113.738678 
	C527.937378,120.601685 530.817749,127.435394 533.520081,134.338821 
	C535.109192,138.398453 538.483521,136.492233 541.155579,136.856552 
	C543.212830,137.137054 545.265442,137.053375 545.744324,133.514069 
M466.577271,136.331528 
	C468.386322,136.834930 470.195404,137.338333 472.799408,138.101776 
	C476.528748,138.278564 480.258118,138.455353 484.612213,138.782532 
	C485.412537,138.529800 486.212830,138.277069 487.791870,138.100128 
	C497.429810,136.066528 503.832275,129.805054 504.691132,121.572998 
	C505.586578,112.990303 501.314667,106.819893 491.439697,102.876808 
	C487.133514,101.157356 482.648956,99.889824 478.277924,98.326180 
	C473.906158,96.762268 470.457886,94.357025 471.076660,88.969826 
	C471.531586,85.009613 475.257263,81.942764 480.714935,82.124626 
	C486.370239,82.313065 491.992249,83.499855 498.385529,84.350693 
	C499.264374,82.924202 500.684998,80.618324 502.075073,78.362015 
	C492.849121,71.501030 477.685181,70.704239 468.604767,76.292580 
	C460.894928,81.037422 458.062286,89.917252 461.695404,97.936005 
	C464.150604,103.354897 468.798431,106.134560 474.077148,108.047661 
	C478.907532,109.798279 484.083649,110.836746 488.562958,113.214668 
	C490.895020,114.452690 493.574860,118.063049 493.340393,120.314720 
	C493.068726,122.923393 490.112946,125.685318 487.663727,127.483788 
	C486.003937,128.702621 483.095612,129.002869 480.944000,128.614670 
	C475.783264,127.683578 470.739502,126.104294 465.348846,124.311745 
	C464.486389,124.510597 463.623901,124.709450 462.142517,125.211922 
	C460.852844,127.210503 459.563171,129.209091 457.987030,131.651596 
	C460.963562,133.212189 463.501556,134.542877 466.577271,136.331528 
M590.429749,115.526756 
	C595.916077,115.370041 601.402466,115.213318 607.112915,115.268524 
	C607.461426,115.336601 607.722595,115.232246 608.668091,115.027206 
	C610.987427,114.139511 613.443787,113.501602 615.601196,112.318634 
	C622.933411,108.298279 627.157288,99.051399 625.742859,90.600319 
	C624.315796,82.073997 617.927551,74.955788 609.164856,74.282997 
	C598.949829,73.498703 588.628479,74.099899 578.108704,74.099899 
	C578.108704,94.794434 578.108704,115.394409 578.052551,136.528244 
	C578.366577,136.580704 578.680603,136.633179 579.891357,136.830582 
	C582.476746,136.830582 585.062134,136.830582 587.814209,136.830582 
	C587.814209,129.797226 587.814209,123.374008 588.194153,116.462120 
	C588.663025,116.067665 589.131836,115.673210 590.429749,115.526756 
M108.499924,169.032654 
	C114.329292,169.029816 120.162216,169.157059 125.987328,168.998108 
	C139.743668,168.622681 150.554947,157.661163 150.764343,143.982513 
	C150.825516,139.986160 150.754623,135.987854 150.753265,131.990448 
	C150.744141,105.174232 150.804001,78.357765 150.701447,51.541912 
	C150.651489,38.476910 141.164978,28.424356 128.626740,27.595163 
	C124.781593,27.340872 122.584442,28.192736 123.036827,32.709206 
	C123.450630,36.840469 123.400673,41.023907 123.441353,45.185463 
	C123.500496,51.236977 119.728569,55.912098 114.038651,56.993351 
	C106.149292,58.492554 99.024345,51.505295 99.883644,43.211792 
	C100.388756,38.336754 100.710548,33.442730 101.157898,28.036264 
	C89.897560,28.036264 79.606850,28.036146 69.316139,28.036295 
	C56.199860,28.036484 56.132294,28.048040 58.391937,41.366951 
	C59.340580,46.958488 58.241665,51.699444 53.379940,54.965717 
	C49.255486,57.736679 44.750317,57.723961 40.650902,55.085564 
	C35.658001,51.872116 34.236961,47.122478 35.103962,41.202412 
	C35.712914,37.044353 35.221581,32.725155 35.221581,28.090921 
	C32.521542,28.090921 30.046299,28.046715 27.573057,28.098328 
	C14.650350,28.368004 4.660459,37.967331 4.591747,50.852768 
	C4.427444,81.664413 4.369527,112.479248 4.641795,143.289490 
	C4.779575,158.880875 15.511604,168.983780 31.048557,169.006226 
	C56.532318,169.043045 82.016159,169.025757 108.499924,169.032654 
M406.377808,136.851395 
	C407.841705,136.783890 409.305603,136.716370 411.373535,136.621002 
	C411.373535,129.461975 411.373535,122.562683 411.373535,115.897888 
	C419.970856,113.935791 426.659088,114.931046 430.435944,123.476685 
	C431.621918,126.160164 433.830353,128.392471 435.575226,130.828094 
	C440.403809,137.568283 441.866028,138.087799 450.975037,135.983673 
	C445.880554,128.451706 440.891541,121.075653 435.795990,113.542091 
	C437.483856,112.674416 438.827667,112.039398 440.118622,111.310661 
	C447.187378,107.320274 451.469208,98.121727 450.069763,89.989189 
	C448.627136,81.605217 442.243439,74.680443 433.712799,74.150955 
	C422.961792,73.483658 412.137939,73.990005 401.336273,73.990005 
	C401.336273,94.883934 401.336273,115.631691 401.336273,136.661331 
	C402.897766,136.732819 404.189575,136.791962 406.377808,136.851395 
M51.731159,4.736115 
	C50.288155,4.381427 48.561131,3.342643 47.455894,3.801509 
	C44.258778,5.128871 40.739182,6.504681 38.420700,8.901068 
	C35.883209,11.523821 36.879360,15.182764 39.042149,18.057587 
	C41.510525,21.338602 44.824890,23.094061 49.004951,22.239603 
	C53.255058,21.370827 56.176746,18.816349 57.168541,14.490761 
	C58.175240,10.100165 55.923935,7.213250 51.731159,4.736115 
M107.276840,4.717106 
	C101.382133,8.825753 100.097824,13.890544 103.801537,18.422176 
	C107.121773,22.484594 112.878975,23.528799 117.196983,20.851748 
	C121.118446,18.420544 122.916954,13.550056 121.302979,9.732411 
	C119.230705,4.830721 114.331070,2.879389 107.276840,4.717106 
z"/>
<path fill="#082335" opacity="1.000000" stroke="none" 
	d="
M107.999939,169.031967 
	C82.016159,169.025757 56.532318,169.043045 31.048557,169.006226 
	C15.511604,168.983780 4.779575,158.880875 4.641795,143.289490 
	C4.369527,112.479248 4.427444,81.664413 4.591747,50.852768 
	C4.660459,37.967331 14.650350,28.368004 27.573057,28.098328 
	C30.046299,28.046715 32.521542,28.090921 35.221581,28.090921 
	C35.221581,32.725155 35.712914,37.044353 35.103962,41.202412 
	C34.236961,47.122478 35.658001,51.872116 40.650902,55.085564 
	C44.750317,57.723961 49.255486,57.736679 53.379940,54.965717 
	C58.241665,51.699444 59.340580,46.958488 58.391937,41.366951 
	C56.132294,28.048040 56.199860,28.036484 69.316139,28.036295 
	C79.606850,28.036146 89.897560,28.036264 101.157898,28.036264 
	C100.710548,33.442730 100.388756,38.336754 99.883644,43.211792 
	C99.024345,51.505295 106.149292,58.492554 114.038651,56.993351 
	C119.728569,55.912098 123.500496,51.236977 123.441353,45.185463 
	C123.400673,41.023907 123.450630,36.840469 123.036827,32.709206 
	C122.584442,28.192736 124.781593,27.340872 128.626740,27.595163 
	C141.164978,28.424356 150.651489,38.476910 150.701447,51.541912 
	C150.804001,78.357765 150.744141,105.174232 150.753265,131.990448 
	C150.754623,135.987854 150.825516,139.986160 150.764343,143.982513 
	C150.554947,157.661163 139.743668,168.622681 125.987328,168.998108 
	C120.162216,169.157059 114.329292,169.029816 107.999939,169.031967 
M28.933935,134.467743 
	C28.933935,138.076630 28.933935,141.685516 28.933935,145.595383 
	C61.586521,145.595383 93.632332,145.595383 125.864868,145.595383 
	C125.864868,123.412552 125.864868,101.386833 125.864868,79.307709 
	C93.495895,79.307709 61.456570,79.307709 28.932783,79.307709 
	C28.932783,97.576012 28.932783,115.525749 28.933935,134.467743 
z"/>
<path fill="#0E2837" opacity="1.000000" stroke="none" 
	d="
M405.929596,136.851242 
	C404.189575,136.791962 402.897766,136.732819 401.336273,136.661331 
	C401.336273,115.631691 401.336273,94.883934 401.336273,73.990005 
	C412.137939,73.990005 422.961792,73.483658 433.712799,74.150955 
	C442.243439,74.680443 448.627136,81.605217 450.069763,89.989189 
	C451.469208,98.121727 447.187378,107.320274 440.118622,111.310661 
	C438.827667,112.039398 437.483856,112.674416 435.795990,113.542091 
	C440.891541,121.075653 445.880554,128.451706 450.975037,135.983673 
	C441.866028,138.087799 440.403809,137.568283 435.575226,130.828094 
	C433.830353,128.392471 431.621918,126.160164 430.435944,123.476685 
	C426.659088,114.931046 419.970856,113.935791 411.373535,115.897888 
	C411.373535,122.562683 411.373535,129.461975 411.373535,136.621002 
	C409.305603,136.716370 407.841705,136.783890 405.929596,136.851242 
M433.288483,83.710670 
	C426.110657,83.236351 418.932831,82.762032 411.571625,82.275597 
	C411.571625,90.560371 411.571625,97.772232 411.571625,105.009033 
	C417.698334,105.009033 423.514496,105.354935 429.268463,104.905220 
	C434.341553,104.508720 437.870087,101.418289 439.063995,96.337044 
	C440.279846,91.162376 439.138092,86.748383 433.288483,83.710670 
z"/>
<path fill="#092431" opacity="1.000000" stroke="none" 
	d="
M578.108704,135.994385 
	C578.108704,115.394409 578.108704,94.794434 578.108704,74.099899 
	C588.628479,74.099899 598.949829,73.498703 609.164856,74.282997 
	C617.927551,74.955788 624.315796,82.073997 625.742859,90.600319 
	C627.157288,99.051399 622.933411,108.298279 615.601196,112.318634 
	C613.443787,113.501602 610.987427,114.139511 608.025513,114.968887 
	C607.218323,114.959251 607.053589,115.007927 606.888794,115.056602 
	C601.402466,115.213318 595.916077,115.370041 589.690674,115.308136 
	C588.572510,115.709930 588.193359,116.330360 587.814209,116.950790 
	C587.814209,123.374008 587.814209,129.797226 587.814209,136.830582 
	C585.062134,136.830582 582.476746,136.830582 579.356934,136.577454 
	C578.626343,136.124008 578.388428,136.014023 578.108704,135.994385 
M596.506836,82.670708 
	C593.758545,82.670708 591.010254,82.670708 588.342529,82.670708 
	C588.342529,90.963493 588.342529,98.357147 588.342529,106.695251 
	C595.175537,105.903091 601.718079,105.818390 607.870361,104.225945 
	C613.139771,102.862045 615.717957,97.041023 614.843506,91.815636 
	C613.926147,86.333847 610.553589,83.353027 604.478210,82.836807 
	C602.158997,82.639748 599.816589,82.715439 596.506836,82.670708 
z"/>
<path fill="#0D2535" opacity="1.000000" stroke="none" 
	d="
M483.987457,138.632141 
	C480.258118,138.455353 476.528748,138.278564 472.400208,137.582581 
	C471.624908,135.407440 471.248779,133.751480 470.703461,131.350433 
	C468.542572,133.446060 467.291077,134.659805 466.039551,135.873550 
	C463.501556,134.542877 460.963562,133.212189 457.987030,131.651596 
	C459.563171,129.209091 460.852844,127.210503 462.933838,125.075790 
	C464.366272,124.888634 465.007385,124.837608 465.648529,124.786591 
	C470.739502,126.104294 475.783264,127.683578 480.944000,128.614670 
	C483.095612,129.002869 486.003937,128.702621 487.663727,127.483788 
	C490.112946,125.685318 493.068726,122.923393 493.340393,120.314720 
	C493.574860,118.063049 490.895020,114.452690 488.562958,113.214668 
	C484.083649,110.836746 478.907532,109.798279 474.077148,108.047661 
	C468.798431,106.134560 464.150604,103.354897 461.695404,97.936005 
	C458.062286,89.917252 460.894928,81.037422 468.604767,76.292580 
	C477.685181,70.704239 492.849121,71.501030 502.075073,78.362015 
	C500.684998,80.618324 499.264374,82.924202 498.385529,84.350693 
	C491.992249,83.499855 486.370239,82.313065 480.714935,82.124626 
	C475.257263,81.942764 471.531586,85.009613 471.076660,88.969826 
	C470.457886,94.357025 473.906158,96.762268 478.277924,98.326180 
	C482.648956,99.889824 487.133514,101.157356 491.439697,102.876808 
	C501.314667,106.819893 505.586578,112.990303 504.691132,121.572998 
	C503.832275,129.805054 497.429810,136.066528 487.361359,137.760178 
	C485.949707,137.824203 484.968597,138.228180 483.987457,138.632141 
z"/>
<path fill="#0D2533" opacity="1.000000" stroke="none" 
	d="
M533.057922,107.002930 
	C534.742798,111.315941 536.427673,115.628952 538.104553,120.617661 
	C538.444641,121.720009 538.792725,122.146652 539.140747,122.573288 
	C539.431519,122.069778 539.722351,121.566277 540.013184,121.062775 
	C545.554016,106.281319 551.035583,91.476875 556.742981,76.760010 
	C557.223755,75.520401 559.118164,74.328468 560.533264,74.064156 
	C562.905334,73.621078 565.420288,73.943016 568.736328,73.943016 
	C563.765686,86.872238 559.074341,99.101807 554.361511,111.323036 
	C551.506409,118.726738 548.617859,126.117508 545.122986,133.749939 
	C541.033997,129.180634 535.784668,124.786545 534.556702,119.464622 
	C533.074707,113.041344 529.781250,112.940857 525.147522,112.995895 
	C524.478027,111.559677 523.808594,110.123459 523.571899,108.344574 
	C527.022400,107.668915 530.040161,107.335930 533.057922,107.002930 
z"/>
<path fill="#1D769F" opacity="1.000000" stroke="none" 
	d="
M261.061401,122.833679 
	C268.876617,130.250153 282.017487,125.281906 284.604736,115.193604 
	C285.758759,117.189888 286.341736,120.345230 287.552704,120.608101 
	C291.055756,121.368591 294.811401,120.965591 298.467896,121.019318 
	C298.593170,126.044189 298.718414,131.069061 298.602661,136.664383 
	C298.162750,137.450623 298.051361,137.704788 298.027527,137.997314 
	C296.544189,138.052261 295.059723,138.175690 293.577728,138.150589 
	C286.416504,138.029190 286.416748,138.015015 283.780792,131.947037 
	C277.118073,138.289856 269.740479,142.705917 260.210175,139.755692 
	C254.141510,137.877045 250.014374,133.786163 248.367722,127.364349 
	C250.783020,126.992462 252.946472,127.503426 254.672974,126.853531 
	C256.979950,125.985138 258.947876,124.215988 261.061401,122.833679 
z"/>
<path fill="#156A95" opacity="1.000000" stroke="none" 
	d="
M349.888397,124.722107 
	C349.094116,133.609818 343.553528,138.470581 335.519257,140.427582 
	C323.899780,143.257874 313.707703,140.244949 305.098694,131.736420 
	C305.778076,130.755722 306.219421,130.054092 306.723541,129.400909 
	C311.866425,122.737411 311.834595,122.828537 319.648315,125.878860 
	C325.507660,128.166214 331.444946,129.855194 337.216217,124.041168 
	C337.772858,122.683380 337.892059,121.847374 338.341309,121.053177 
	C342.410339,122.304039 346.149353,123.513069 349.888397,124.722107 
z"/>
<path fill="#21759D" opacity="1.000000" stroke="none" 
	d="
M236.676743,121.998970 
	C236.315964,135.361481 225.766083,144.089447 212.448685,141.716049 
	C206.222885,140.606476 200.289444,138.489517 195.468536,133.465988 
	C198.380920,129.978546 201.116150,126.703262 203.814331,123.472313 
	C216.195755,129.884384 220.860855,128.983170 224.249115,119.391403 
	C224.557693,119.022293 224.993195,118.972404 225.009399,119.386200 
	C226.080795,120.531822 227.080307,121.772514 228.202103,121.895180 
	C230.997330,122.200844 233.848206,121.997803 236.676743,121.998970 
z"/>
<path fill="#298FB6" opacity="1.000000" stroke="none" 
	d="
M357.056122,81.445213 
	C358.102448,81.322060 359.148743,81.198906 360.671387,81.416245 
	C362.621063,82.168610 364.103180,82.961891 365.566193,82.928017 
	C372.916718,82.757874 380.262177,82.371597 387.609436,82.061234 
	C387.710754,85.434181 387.812073,88.807121 387.625122,92.630844 
	C387.336823,93.081619 387.078217,93.346321 387.078217,93.346321 
	C383.406494,93.544876 379.734741,93.743439 375.221619,94.122849 
	C369.970306,94.194244 365.560364,94.084801 361.150452,93.975357 
	C360.493073,93.897987 359.810669,93.665871 359.182190,93.767410 
	C353.464172,94.691261 352.289520,91.692390 353.581543,86.405655 
	C355.024231,84.433968 356.040192,82.939590 357.056122,81.445213 
z"/>
<path fill="#0D2A38" opacity="1.000000" stroke="none" 
	d="
M533.062256,106.621208 
	C530.040161,107.335930 527.022400,107.668915 523.580566,108.002365 
	C518.773743,96.897766 514.390991,85.792717 509.798553,74.156219 
	C513.930664,74.156219 517.333435,74.156219 520.914124,74.156219 
	C524.942017,84.790192 529.004272,95.514839 533.062256,106.621208 
z"/>
<path fill="#196A91" opacity="1.000000" stroke="none" 
	d="
M376.019135,123.003296 
	C378.869263,123.715164 381.719421,124.427032 385.778839,125.440926 
	C386.497467,127.330360 388.010193,130.467194 388.771545,133.776901 
	C389.029175,134.896866 387.726440,137.058411 386.558075,137.716415 
	C376.680573,143.279266 365.974670,138.841537 362.063019,127.013634 
	C361.797485,124.826836 361.512848,123.380478 361.228210,121.934113 
	C361.231171,119.250832 361.234161,116.567535 361.623169,113.454521 
	C362.335144,113.013420 362.661163,113.008156 362.990387,113.340607 
	C362.995667,114.114601 362.997833,114.556999 362.999084,115.439606 
	C363.004578,123.720703 366.217896,126.490723 373.016754,124.445236 
	C374.067108,124.129234 375.020752,123.491982 376.019135,123.003296 
z"/>
<path fill="#1F80AB" opacity="1.000000" stroke="none" 
	d="
M323.570831,99.834793 
	C329.944885,102.293083 336.318909,104.751373 342.987793,107.770111 
	C343.624420,108.490494 343.966156,108.650421 344.307922,108.810349 
	C344.307922,108.810349 344.183319,108.736748 344.145813,109.131790 
	C344.301392,112.892448 342.237030,113.294891 339.615662,112.929642 
	C337.509064,112.636124 335.416565,112.151131 333.301453,112.024857 
	C325.644745,111.567787 317.914215,111.610275 310.802582,108.073936 
	C310.802582,108.073936 310.934113,108.059227 310.842590,107.864944 
	C310.464661,107.460213 310.178284,107.249748 309.891876,107.039284 
	C309.891876,107.039284 309.972778,107.027466 309.945129,106.738007 
	C309.517090,106.001541 309.116669,105.554550 308.716248,105.107559 
	C308.716248,105.107559 308.885468,105.077019 308.812256,104.889664 
	C308.448822,104.483421 308.158630,104.264534 307.868439,104.045639 
	C307.868439,104.045639 307.946442,104.020035 307.964478,103.672211 
	C307.988068,102.549706 307.993652,101.775040 308.281311,100.708763 
	C311.443665,100.469154 314.356140,100.793808 317.190979,100.459793 
	C318.640137,100.289047 319.950256,98.938210 321.323212,98.120758 
	C321.323212,98.120758 321.753448,98.301384 322.021301,98.823349 
	C322.716400,99.508469 323.143616,99.671631 323.570831,99.834793 
z"/>
<path fill="#0E2537" opacity="1.000000" stroke="none" 
	d="
M52.067535,4.883930 
	C55.923935,7.213250 58.175240,10.100165 57.168541,14.490761 
	C56.176746,18.816349 53.255058,21.370827 49.004951,22.239603 
	C44.824890,23.094061 41.510525,21.338602 39.042149,18.057587 
	C36.879360,15.182764 35.883209,11.523821 38.420700,8.901068 
	C40.739182,6.504681 44.258778,5.128871 47.455894,3.801509 
	C48.561131,3.342643 50.288155,4.381427 52.067535,4.883930 
z"/>
<path fill="#0D2335" opacity="1.000000" stroke="none" 
	d="
M107.619576,4.568230 
	C114.331070,2.879389 119.230705,4.830721 121.302979,9.732411 
	C122.916954,13.550056 121.118446,18.420544 117.196983,20.851748 
	C112.878975,23.528799 107.121773,22.484594 103.801537,18.422176 
	C100.097824,13.890544 101.382133,8.825753 107.619576,4.568230 
z"/>
<path fill="#389BBE" opacity="1.000000" stroke="none" 
	d="
M307.932556,86.996857 
	C308.329651,86.080162 308.726776,85.163475 309.676270,83.998032 
	C310.518250,83.239395 310.807800,82.729507 311.097351,82.219620 
	C311.097351,82.219620 311.069672,82.090454 311.508179,82.077583 
	C316.611908,81.883095 321.276642,81.684929 325.942657,81.525780 
	C328.971039,81.422485 333.388184,82.597778 334.747559,81.054680 
	C337.751465,77.644684 340.737854,78.821152 343.959747,79.018692 
	C343.959747,79.018692 343.993225,78.992912 344.163605,79.250473 
	C344.698029,79.620682 345.062042,79.733337 345.426086,79.845993 
	C345.426086,79.845985 345.765015,79.864975 346.017090,80.189987 
	C346.511810,80.771713 346.809387,80.888916 347.161987,80.866615 
	C347.161987,80.866615 347.053986,80.886154 347.171417,81.132446 
	C347.607391,81.610596 347.925934,81.842438 348.244476,82.074280 
	C348.145905,82.523445 348.047333,82.972610 347.468262,83.723404 
	C346.668091,84.380798 346.348389,84.736549 346.028687,85.092308 
	C343.207672,91.583015 343.352783,91.069244 336.837158,89.228813 
	C332.452026,87.990173 327.584869,88.457916 322.248871,87.860062 
	C317.020416,87.370857 312.476501,87.183861 307.932556,86.996857 
z"/>
<path fill="#1C77A0" opacity="1.000000" stroke="none" 
	d="
M310.912659,108.400780 
	C317.914215,111.610275 325.644745,111.567787 333.301453,112.024857 
	C335.416565,112.151131 337.509064,112.636124 339.615662,112.929642 
	C342.237030,113.294891 344.301392,112.892448 344.204712,109.089714 
	C350.028381,112.415604 351.000397,117.979256 350.041382,124.469139 
	C346.149353,123.513069 342.410339,122.304039 338.334290,121.046608 
	C337.997253,120.998215 337.983551,120.988319 337.839417,120.742683 
	C337.369629,120.304741 337.043976,120.112434 336.718323,119.920120 
	C332.206512,118.328606 327.590546,116.976974 323.212830,115.076569 
	C319.020752,113.256752 315.076141,110.866928 310.912659,108.400780 
z"/>
<path fill="#0D2A38" opacity="1.000000" stroke="none" 
	d="
M525.139648,113.367287 
	C529.781250,112.940857 533.074707,113.041344 534.556702,119.464622 
	C535.784668,124.786545 541.033997,129.180634 544.865356,134.036865 
	C545.265442,137.053375 543.212830,137.137054 541.155579,136.856552 
	C538.483521,136.492233 535.109192,138.398453 533.520081,134.338821 
	C530.817749,127.435394 527.937378,120.601685 525.139648,113.367287 
z"/>
<path fill="#48A2C2" opacity="1.000000" stroke="none" 
	d="
M285.487610,100.088409 
	C285.380402,92.667618 285.178986,85.245499 285.282928,77.827667 
	C285.296204,76.880188 286.832581,75.239555 287.781616,75.148140 
	C291.187195,74.820107 294.643524,75.019485 298.698883,75.019485 
	C298.698883,81.022346 298.698883,86.584831 298.234985,92.450645 
	C297.517395,91.998436 297.109009,91.257690 297.035187,90.484962 
	C296.551819,85.427910 292.106598,87.169289 289.328979,86.243301 
	C289.102570,86.167824 287.321808,89.272797 287.096222,91.008194 
	C286.713837,93.950035 286.995972,96.978264 286.746826,99.996582 
	C286.159119,100.044792 285.823364,100.066597 285.487610,100.088409 
z"/>
<path fill="#4DADCD" opacity="1.000000" stroke="none" 
	d="
M246.058792,86.027267 
	C246.058792,82.581581 246.058792,79.135895 246.058792,74.920357 
	C249.595978,74.920357 253.024307,74.674889 256.374329,75.078857 
	C257.307129,75.191345 258.681030,77.210136 258.707764,78.380531 
	C258.900055,86.801872 258.797607,95.229958 258.440186,103.602280 
	C257.977051,101.713951 257.862366,99.879242 257.806702,97.657318 
	C257.849487,96.238304 257.833221,95.206505 257.854980,93.718796 
	C257.892975,90.557877 257.892975,87.852867 257.892975,85.203552 
	C256.902161,86.545166 255.840698,88.824631 255.196060,88.712280 
	C252.088699,88.170738 249.093674,86.984657 246.058792,86.027267 
z"/>
<path fill="#3499BD" opacity="1.000000" stroke="none" 
	d="
M236.705963,82.057709 
	C236.781265,87.076332 236.856583,92.094963 236.410110,97.551178 
	C232.282120,97.667534 228.675919,97.346298 225.047302,96.579727 
	C224.790863,93.103325 224.556839,90.072258 224.322815,87.041191 
	C224.287003,85.979279 224.251190,84.917366 224.717743,83.445854 
	C229.048721,82.710075 232.877350,82.383888 236.705963,82.057709 
z"/>
<path fill="#258FB9" opacity="1.000000" stroke="none" 
	d="
M286.998779,99.970177 
	C286.995972,96.978264 286.713837,93.950035 287.096222,91.008194 
	C287.321808,89.272797 289.102570,86.167824 289.328979,86.243301 
	C292.106598,87.169289 296.551819,85.427910 297.035187,90.484962 
	C297.109009,91.257690 297.517395,91.998436 298.079224,92.895355 
	C298.466522,96.072868 298.545685,99.108994 298.101135,102.573792 
	C294.051636,102.674828 290.525818,102.347214 286.996002,101.678238 
	C286.994263,100.881317 286.996521,100.425743 286.998779,99.970177 
z"/>
<path fill="#419CBD" opacity="1.000000" stroke="none" 
	d="
M387.443909,81.697876 
	C380.262177,82.371597 372.916718,82.757874 365.566193,82.928017 
	C364.103180,82.961891 362.621063,82.168610 361.063629,81.357925 
	C361.001312,78.607162 361.023071,76.255211 361.523132,73.450989 
	C366.168945,72.369598 370.336456,71.740494 374.503967,71.111389 
	C374.704071,74.180099 374.904205,77.248810 375.128998,80.695320 
	C379.256927,80.912498 383.267639,81.123512 387.443909,81.697876 
z"/>
<path fill="#1D7FA9" opacity="1.000000" stroke="none" 
	d="
M286.746826,99.996582 
	C286.996521,100.425743 286.994263,100.881317 286.994446,102.125656 
	C286.996918,105.468208 286.996918,108.021988 286.996918,110.105888 
	C291.366150,110.460686 294.866180,110.744896 298.366211,111.029106 
	C298.483856,114.064423 298.601532,117.099731 298.593536,120.577187 
	C294.811401,120.965591 291.055756,121.368591 287.552704,120.608101 
	C286.341736,120.345230 285.758759,117.189888 284.825897,114.902435 
	C284.950531,109.964005 285.138184,105.478920 285.406738,100.541115 
	C285.823364,100.066597 286.159119,100.044792 286.746826,99.996582 
z"/>
<path fill="#46A3C6" opacity="1.000000" stroke="none" 
	d="
M343.747101,78.736023 
	C340.737854,78.821152 337.751465,77.644684 334.747559,81.054680 
	C333.388184,82.597778 328.971039,81.422485 325.942657,81.525780 
	C321.276642,81.684929 316.611908,81.883095 311.574219,82.078766 
	C317.547485,73.996025 326.260742,74.137390 335.139343,75.497177 
	C338.021027,75.938522 340.740692,77.437912 343.747101,78.736023 
z"/>
<path fill="#2482AC" opacity="1.000000" stroke="none" 
	d="
M361.131561,94.427551 
	C365.560364,94.084801 369.970306,94.194244 374.768616,94.169098 
	C375.123962,98.394821 375.090912,102.755135 374.744263,107.579102 
	C374.430664,108.042763 374.011139,108.050171 373.927734,107.661400 
	C370.228760,106.517303 366.613159,105.761978 362.995605,104.690399 
	C362.503296,103.604034 362.012970,102.833939 361.522644,102.063843 
	C361.385986,99.669144 361.249329,97.274437 361.131561,94.427551 
z"/>
<path fill="#369BBE" opacity="1.000000" stroke="none" 
	d="
M245.992157,86.486107 
	C249.093674,86.984657 252.088699,88.170738 255.196060,88.712280 
	C255.840698,88.824631 256.902161,86.545166 257.892975,85.203552 
	C257.892975,87.852867 257.892975,90.557877 257.611511,93.941010 
	C257.224518,95.748940 257.118988,96.878738 257.006714,98.004425 
	C257.000000,98.000305 257.008545,98.013252 256.567200,98.008522 
	C253.081696,98.678635 250.037521,99.353477 246.775208,100.025589 
	C246.557098,100.022850 246.120850,100.017593 246.120850,100.017593 
	C246.055740,95.660042 245.990631,91.302498 245.992157,86.486107 
z"/>
<path fill="#298DB5" opacity="1.000000" stroke="none" 
	d="
M225.069717,97.025055 
	C228.675919,97.346298 232.282120,97.667534 236.280777,98.002625 
	C236.785538,101.364105 236.897842,104.711739 236.708649,108.506432 
	C236.407150,108.953491 235.933533,108.988640 235.562958,108.986649 
	C231.817764,107.660439 228.443176,106.336212 225.046814,104.568176 
	C225.039948,101.757927 225.054825,99.391495 225.069717,97.025055 
z"/>
<path fill="#2386A9" opacity="1.000000" stroke="none" 
	d="
M257.747681,98.044533 
	C257.862366,99.879242 257.977051,101.713951 258.243225,103.996140 
	C258.444153,106.873627 258.493591,109.303650 258.367432,112.394562 
	C258.327454,113.381676 258.463104,113.707893 258.598755,114.034111 
	C258.767426,115.090073 258.936127,116.146027 258.642456,117.611137 
	C254.785950,118.348518 251.391754,118.676750 247.707901,118.723335 
	C247.280884,115.629242 247.143524,112.816788 247.449677,110.002731 
	C256.984192,109.997528 256.984314,109.997528 257.005219,100.938667 
	C257.007477,99.963531 257.007477,98.988388 257.008545,98.013252 
	C257.008545,98.013252 257.000000,98.000305 257.190430,98.008583 
	C257.380829,98.016861 257.747681,98.044533 257.747681,98.044533 
z"/>
<path fill="#298AB4" opacity="1.000000" stroke="none" 
	d="
M321.233551,97.831924 
	C319.950256,98.938210 318.640137,100.289047 317.190979,100.459793 
	C314.356140,100.793808 311.443665,100.469154 308.013611,100.707596 
	C307.285431,100.994484 307.107025,100.990944 306.928589,100.987396 
	C306.644836,98.122261 306.361115,95.257118 306.603485,92.239395 
	C308.666901,92.592400 310.187469,93.447792 311.745331,93.522179 
	C314.122589,93.635681 316.525665,93.209312 318.917755,93.012169 
	C319.659790,94.522484 320.401825,96.032791 321.233551,97.831924 
z"/>
<path fill="#187398" opacity="1.000000" stroke="none" 
	d="
M375.991425,122.719513 
	C375.020752,123.491982 374.067108,124.129234 373.016754,124.445236 
	C366.217896,126.490723 363.004578,123.720703 363.419922,115.441025 
	C367.226959,115.335930 370.612244,115.669647 373.999451,116.398857 
	C374.537720,118.525597 375.074066,120.256851 375.610443,121.988098 
	C375.728210,122.137314 375.845947,122.286530 375.991425,122.719513 
z"/>
<path fill="#56A5C2" opacity="1.000000" stroke="none" 
	d="
M236.842896,81.621674 
	C232.877350,82.383888 229.048721,82.710075 224.795349,83.053757 
	C224.370575,80.630745 224.370575,78.190231 224.370575,75.771530 
	C233.864944,72.897575 237.148407,74.320770 236.842896,81.621674 
z"/>
<path fill="#1E86B1" opacity="1.000000" stroke="none" 
	d="
M298.508362,110.601044 
	C294.866180,110.744896 291.366150,110.460686 286.996918,110.105888 
	C286.996918,108.021988 286.996918,105.468208 286.998474,102.467010 
	C290.525818,102.347214 294.051636,102.674828 297.952057,103.002838 
	C298.434601,105.393150 298.542542,107.783066 298.508362,110.601044 
z"/>
<path fill="#1E7CA4" opacity="1.000000" stroke="none" 
	d="
M247.997559,119.004990 
	C251.391754,118.676750 254.785950,118.348518 258.596130,118.010864 
	C259.653656,119.390350 260.295166,120.779266 260.999023,122.500931 
	C258.947876,124.215988 256.979950,125.985138 254.672974,126.853531 
	C252.946472,127.503426 250.783020,126.992462 248.358093,126.999542 
	C247.902054,127.000710 247.772156,126.811600 247.854416,126.225693 
	C247.956970,123.428185 247.977264,121.216591 247.997559,119.004990 
z"/>
<path fill="#3395BC" opacity="1.000000" stroke="none" 
	d="
M319.045776,92.710541 
	C316.525665,93.209312 314.122589,93.635681 311.745331,93.522179 
	C310.187469,93.447792 308.666901,92.592400 306.771576,91.870445 
	C306.486206,91.269402 306.558838,90.884720 307.017822,90.147888 
	C307.682709,89.605942 307.874268,89.350853 307.950287,88.640617 
	C307.887573,87.992424 307.853424,87.734077 307.819244,87.475731 
	C307.819244,87.475731 307.740753,87.204231 307.836670,87.100548 
	C312.476501,87.183861 317.020416,87.370857 321.842957,87.888824 
	C321.138947,89.616165 320.156372,91.012543 319.045776,92.710541 
z"/>
<path fill="#207BA5" opacity="1.000000" stroke="none" 
	d="
M236.808563,121.680794 
	C233.848206,121.997803 230.997330,122.200844 228.202103,121.895180 
	C227.080307,121.772514 226.080795,120.531822 224.998962,118.989464 
	C224.999573,117.118584 225.026825,116.058250 225.506165,114.998703 
	C229.297455,114.996910 232.636642,114.994324 235.993591,115.374298 
	C236.305099,117.168472 236.598862,118.580093 236.892624,119.991707 
	C236.908554,120.448677 236.924469,120.905647 236.808563,121.680794 
z"/>
<path fill="#56A5C2" opacity="1.000000" stroke="none" 
	d="
M225.054092,114.997910 
	C225.026825,116.058250 224.999573,117.118584 224.982758,118.575668 
	C224.993195,118.972404 224.557693,119.022293 224.338928,119.034897 
	C224.112442,108.680756 224.104721,98.314003 224.209915,87.494225 
	C224.556839,90.072258 224.790863,93.103325 225.047302,96.579727 
	C225.054825,99.391495 225.039948,101.757927 225.025299,105.020569 
	C225.035080,108.943810 225.044586,111.970863 225.054092,114.997910 
z"/>
<path fill="#59ABC5" opacity="1.000000" stroke="none" 
	d="
M374.383179,70.728951 
	C370.336456,71.740494 366.168945,72.369598 361.601044,73.016953 
	C361.985748,71.999046 362.722015,70.121941 363.564453,70.073036 
	C367.113190,69.867012 370.693573,70.206573 374.383179,70.728951 
z"/>
<path fill="#102A3B" opacity="1.000000" stroke="none" 
	d="
M466.308411,136.102539 
	C467.291077,134.659805 468.542572,133.446060 470.703461,131.350433 
	C471.248779,133.751480 471.624908,135.407440 472.002747,137.452576 
	C470.195404,137.338333 468.386322,136.834930 466.308411,136.102539 
z"/>
<path fill="#187398" opacity="1.000000" stroke="none" 
	d="
M361.392334,102.501343 
	C362.012970,102.833939 362.503296,103.604034 362.994873,105.134010 
	C362.993164,108.265594 362.990234,110.637299 362.987274,113.009003 
	C362.661163,113.008156 362.335144,113.013420 361.765015,113.030357 
	C361.434570,109.670227 361.348297,106.304543 361.392334,102.501343 
z"/>
<path fill="#1D769F" opacity="1.000000" stroke="none" 
	d="
M247.707901,118.723343 
	C247.977264,121.216591 247.956970,123.428185 247.911346,126.126099 
	C247.252289,120.719429 246.618561,114.826447 246.271606,108.477867 
	C246.558395,108.022278 246.959976,108.023170 246.970566,108.353142 
	C246.989487,109.123520 246.997818,109.563934 247.006165,110.004341 
	C247.143524,112.816788 247.280884,115.629242 247.707901,118.723343 
z"/>
<path fill="#196A91" opacity="1.000000" stroke="none" 
	d="
M375.585510,121.580658 
	C375.074066,120.256851 374.537720,118.525597 374.001587,115.955490 
	C374.004944,112.761139 374.008057,110.405655 374.011139,108.050171 
	C374.011139,108.050171 374.430664,108.042763 374.640320,108.035187 
	C375.086884,112.409485 375.323761,116.791351 375.585510,121.580658 
z"/>
<path fill="#419CBD" opacity="1.000000" stroke="none" 
	d="
M356.718750,81.332809 
	C356.040192,82.939590 355.024231,84.433968 353.697266,85.985794 
	C353.306458,84.974335 353.226715,83.905418 353.512573,82.432686 
	C354.242004,81.792099 354.605896,81.555336 354.969757,81.318565 
	C355.440277,81.285843 355.910828,81.253128 356.718750,81.332809 
z"/>
<path fill="#56A5C2" opacity="1.000000" stroke="none" 
	d="
M237.025162,119.550171 
	C236.598862,118.580093 236.305099,117.168472 236.011566,114.946487 
	C235.985718,112.420296 235.959625,110.704468 235.933533,108.988640 
	C235.933533,108.988640 236.407150,108.953491 236.644409,108.958389 
	C236.973679,112.345062 237.065689,115.726852 237.025162,119.550171 
z"/>
<path fill="#2386A9" opacity="1.000000" stroke="none" 
	d="
M246.959976,108.023170 
	C246.959976,108.023170 246.558395,108.022278 246.357635,108.019829 
	C246.095673,105.643784 246.034485,103.270195 246.047073,100.457092 
	C246.120850,100.017593 246.557098,100.022850 246.775299,100.467056 
	C246.982330,103.281906 246.971161,105.652534 246.959976,108.023170 
z"/>
<path fill="#102A3B" opacity="1.000000" stroke="none" 
	d="
M484.299835,138.707336 
	C484.968597,138.228180 485.949707,137.824203 486.971985,137.722290 
	C486.212830,138.277069 485.412537,138.529800 484.299835,138.707336 
z"/>
<path fill="#59ABC5" opacity="1.000000" stroke="none" 
	d="
M361.097534,122.301865 
	C361.512848,123.380478 361.797485,124.826836 362.009460,126.651192 
	C361.613434,125.575996 361.290131,124.122803 361.097534,122.301865 
z"/>
<path fill="#1F3947" opacity="1.000000" stroke="none" 
	d="
M588.004150,116.706451 
	C588.193359,116.330360 588.572510,115.709930 589.276184,115.184128 
	C589.131836,115.673210 588.663025,116.067665 588.004150,116.706451 
z"/>
<path fill="#0D2A38" opacity="1.000000" stroke="none" 
	d="
M539.685608,121.073906 
	C539.722351,121.566277 539.431519,122.069778 539.140747,122.573288 
	C538.792725,122.146652 538.444641,121.720009 538.108582,120.973358 
	C538.533020,120.797241 538.945557,120.941147 539.685608,121.073906 
z"/>
<path fill="#102A3B" opacity="1.000000" stroke="none" 
	d="
M465.498688,124.549164 
	C465.007385,124.837608 464.366272,124.888634 463.243286,124.923981 
	C463.623901,124.709450 464.486389,124.510597 465.498688,124.549164 
z"/>
<path fill="#1C77A0" opacity="1.000000" stroke="none" 
	d="
M338.004272,121.004791 
	C337.892059,121.847374 337.772858,122.683380 337.423370,123.740021 
	C337.145630,123.218025 337.098175,122.475418 337.305542,121.360222 
	C337.560425,120.987640 337.983551,120.988319 337.983551,120.988319 
	C337.983551,120.988319 337.997253,120.998215 338.004272,121.004791 
z"/>
<path fill="#1C77A0" opacity="1.000000" stroke="none" 
	d="
M306.912537,101.345612 
	C307.107025,100.990944 307.285431,100.994484 307.731567,100.999191 
	C307.993652,101.775040 307.988068,102.549706 307.957916,103.712730 
	C307.587738,103.301994 307.242126,102.502914 306.912537,101.345612 
z"/>
<path fill="#59ABC5" opacity="1.000000" stroke="none" 
	d="
M354.712219,81.239426 
	C354.605896,81.555336 354.242004,81.792099 353.657166,82.052490 
	C353.775665,81.770828 354.115204,81.465553 354.712219,81.239426 
z"/>
<path fill="#46A3C6" opacity="1.000000" stroke="none" 
	d="
M310.827820,82.324997 
	C310.807800,82.729507 310.518250,83.239395 309.928558,83.815926 
	C309.938416,83.398506 310.248352,82.914436 310.827820,82.324997 
z"/>
<path fill="#46A3C6" opacity="1.000000" stroke="none" 
	d="
M348.392761,81.894005 
	C347.925934,81.842438 347.607391,81.610596 347.204224,81.088440 
	C347.593384,81.103340 348.067230,81.408531 348.392761,81.894005 
z"/>
<path fill="#46A3C6" opacity="1.000000" stroke="none" 
	d="
M346.237457,84.955994 
	C346.348389,84.736549 346.668091,84.380798 347.237305,83.985275 
	C347.139954,84.236900 346.793091,84.528290 346.237457,84.955994 
z"/>
<path fill="#1C77A0" opacity="1.000000" stroke="none" 
	d="
M308.759583,105.415680 
	C309.116669,105.554550 309.517090,106.001541 309.927246,106.774780 
	C309.558990,106.641945 309.180939,106.182877 308.759583,105.415680 
z"/>
<path fill="#1F3947" opacity="1.000000" stroke="none" 
	d="
M607.000854,115.162567 
	C607.053589,115.007927 607.218323,114.959251 607.639709,114.933014 
	C607.722595,115.232246 607.461426,115.336601 607.000854,115.162567 
z"/>
<path fill="#46A3C6" opacity="1.000000" stroke="none" 
	d="
M345.256042,79.608124 
	C345.062042,79.733337 344.698029,79.620682 344.164185,79.271568 
	C344.358246,79.146820 344.722107,79.258537 345.256042,79.608124 
z"/>
<path fill="#4DADCD" opacity="1.000000" stroke="none" 
	d="
M258.708679,113.782013 
	C258.463104,113.707893 258.327454,113.381676 258.302185,112.799469 
	C258.547882,112.872292 258.683228,113.201103 258.708679,113.782013 
z"/>
<path fill="#156A95" opacity="1.000000" stroke="none" 
	d="
M337.839417,120.742683 
	C337.983551,120.988319 337.560425,120.987640 337.348877,120.989655 
	C337.035248,120.826019 336.933167,120.660362 336.774689,120.207413 
	C337.043976,120.112434 337.369629,120.304741 337.839417,120.742683 
z"/>
<path fill="#389BBE" opacity="1.000000" stroke="none" 
	d="
M307.583862,87.665802 
	C307.853424,87.734077 307.887573,87.992424 307.743683,88.637444 
	C307.565674,89.024117 307.151794,89.016594 307.151794,89.016594 
	C307.217346,88.629684 307.282898,88.242783 307.583862,87.665802 
z"/>
<path fill="#1C77A0" opacity="1.000000" stroke="none" 
	d="
M344.209900,108.533463 
	C343.966156,108.650421 343.624420,108.490494 343.166687,108.062775 
	C343.404419,107.948837 343.758148,108.102707 344.209900,108.533463 
z"/>
<path fill="#1C77A0" opacity="1.000000" stroke="none" 
	d="
M309.965820,107.307159 
	C310.178284,107.249748 310.464661,107.460213 310.836304,107.930832 
	C310.627625,107.985672 310.333679,107.780350 309.965820,107.307159 
z"/>
<path fill="#298AB4" opacity="1.000000" stroke="none" 
	d="
M307.044830,89.253448 
	C307.151794,89.016594 307.565674,89.024117 307.772278,89.027290 
	C307.874268,89.350853 307.682709,89.605942 307.185486,89.902512 
	C306.957184,89.836281 306.947540,89.663292 307.044830,89.253448 
z"/>
<path fill="#46A3C6" opacity="1.000000" stroke="none" 
	d="
M347.061829,80.631149 
	C346.809387,80.888916 346.511810,80.771713 346.141785,80.305176 
	C346.330139,80.195450 346.645905,80.295563 347.061829,80.631149 
z"/>
<path fill="#1C77A0" opacity="1.000000" stroke="none" 
	d="
M307.949524,104.314560 
	C308.158630,104.264534 308.448822,104.483421 308.806976,104.975479 
	C308.593506,105.026917 308.312073,104.805191 307.949524,104.314560 
z"/>
<path fill="#419CBD" opacity="1.000000" stroke="none" 
	d="
M387.212555,93.437935 
	C387.078217,93.346321 387.336823,93.081619 387.424377,93.049637 
	C387.511932,93.017647 387.601654,93.329384 387.601654,93.329384 
	C387.601654,93.329384 387.346893,93.529549 387.212555,93.437935 
z"/>
<path fill="#1F3947" opacity="1.000000" stroke="none" 
	d="
M578.080627,136.261322 
	C578.388428,136.014023 578.626343,136.124008 578.908569,136.504990 
	C578.680603,136.633179 578.366577,136.580704 578.080627,136.261322 
z"/>
<path fill="#48A2C2" opacity="1.000000" stroke="none" 
	d="
M298.286804,137.970154 
	C298.051361,137.704788 298.162750,137.450623 298.543671,137.129349 
	C298.665833,137.330246 298.605957,137.636627 298.286804,137.970154 
z"/>
<path fill="#298AB4" opacity="1.000000" stroke="none" 
	d="
M323.377197,99.550148 
	C323.143616,99.671631 322.716400,99.508469 322.115448,99.036827 
	C322.355682,98.907402 322.769623,99.086456 323.377197,99.550148 
z"/>
<path fill="#FDFDFE" opacity="1.000000" stroke="none" 
	d="
M28.933359,133.971619 
	C28.932783,115.525749 28.932783,97.576012 28.932783,79.307709 
	C61.456570,79.307709 93.495895,79.307709 125.864868,79.307709 
	C125.864868,101.386833 125.864868,123.412552 125.864868,145.595383 
	C93.632332,145.595383 61.586521,145.595383 28.933935,145.595383 
	C28.933935,141.685516 28.933935,138.076630 28.933359,133.971619 
z"/>
<path fill="#F7F9F9" opacity="1.000000" stroke="none" 
	d="
M433.660522,83.887665 
	C439.138092,86.748383 440.279846,91.162376 439.063995,96.337044 
	C437.870087,101.418289 434.341553,104.508720 429.268463,104.905220 
	C423.514496,105.354935 417.698334,105.009033 411.571625,105.009033 
	C411.571625,97.772232 411.571625,90.560371 411.571625,82.275597 
	C418.932831,82.762032 426.110657,83.236351 433.660522,83.887665 
z"/>
<path fill="#F8F9FA" opacity="1.000000" stroke="none" 
	d="
M596.995789,82.668770 
	C599.816589,82.715439 602.158997,82.639748 604.478210,82.836807 
	C610.553589,83.353027 613.926147,86.333847 614.843506,91.815636 
	C615.717957,97.041023 613.139771,102.862045 607.870361,104.225945 
	C601.718079,105.818390 595.175537,105.903091 588.342529,106.695251 
	C588.342529,98.357147 588.342529,90.963493 588.342529,82.670708 
	C591.010254,82.670708 593.758545,82.670708 596.995789,82.668770 
z"/>
<path fill="#1B79A2" opacity="1.000000" stroke="none" 
	d="
M373.927734,107.661400 
	C374.008057,110.405655 374.004944,112.761139 373.999695,115.559998 
	C370.612244,115.669647 367.226959,115.335930 363.420837,115.000809 
	C362.997833,114.556999 362.995667,114.114601 362.990387,113.340607 
	C362.990234,110.637299 362.993164,108.265594 362.996826,105.450272 
	C366.613159,105.761978 370.228760,106.517303 373.927734,107.661400 
z"/>
<path fill="#2790B7" opacity="1.000000" stroke="none" 
	d="
M257.806702,97.657318 
	C257.747681,98.044533 257.380829,98.016861 257.197144,98.012703 
	C257.118988,96.878738 257.224518,95.748940 257.573486,94.396927 
	C257.833221,95.206505 257.849487,96.238304 257.806702,97.657318 
z"/>
<path fill="#2790B7" opacity="1.000000" stroke="none" 
	d="
M246.970566,108.353142 
	C246.971161,105.652534 246.982330,103.281906 246.993408,100.469795 
	C250.037521,99.353477 253.081696,98.678635 256.567200,98.008522 
	C257.007477,98.988388 257.007477,99.963531 257.005219,100.938667 
	C256.984314,109.997528 256.984192,109.997528 247.449677,110.002731 
	C246.997818,109.563934 246.989487,109.123520 246.970566,108.353142 
z"/>
<path fill="#2285AE" opacity="1.000000" stroke="none" 
	d="
M235.562958,108.986649 
	C235.959625,110.704468 235.985718,112.420296 235.993835,114.563927 
	C232.636642,114.994324 229.297455,114.996910 225.506165,114.998703 
	C225.044586,111.970863 225.035080,108.943810 225.047058,105.464378 
	C228.443176,106.336212 231.817764,107.660439 235.562958,108.986649 
z"/>
</svg>